HIERARCHY
ROOT Hips
{
	OFFSET 0.000000 0.000000 0.000000
	CHANNELS 6 Xposition Yposition Zposition Zrotation Yrotation Xrotation 
	JOINT LeftUpLeg_virtual
	{
		OFFSET 0.000000 0.000000 0.000000
		CHANNELS 3 Zrotation Yrotation Xrotation
		JOINT LeftUpLeg
		{
			OFFSET 8.479694 -4.795517 -0.379053
			CHANNELS 3 Zrotation Yrotation Xrotation
			JOINT LeftLeg
			{
				OFFSET 0.485052 -32.551468 0.112863
				CHANNELS 3 Zrotation Yrotation Xrotation
				JOINT LeftFoot
				{
					OFFSET 0.438033 -32.635670 -3.012641
					CHANNELS 3 Zrotation Yrotation Xrotation
					JOINT LeftToeBase
					{
						OFFSET 0.970169 -13.225353 11.864223
						CHANNELS 3 Zrotation Yrotation Xrotation
						End Site
						{
							OFFSET 0.000000 0.000000 0.000000
						}
					}
				}
			}
		}
	}
	JOINT RightUpLeg_virtual
	{
		OFFSET 0.000000 0.000000 0.000000
		CHANNELS 3 Zrotation Yrotation Xrotation
		JOINT RightUpLeg
		{
			OFFSET -8.479694 -4.795517 -0.379053
			CHANNELS 3 Zrotation Yrotation Xrotation
			JOINT RightLeg
			{
				OFFSET -0.484100 -32.551483 0.112903
				CHANNELS 3 Zrotation Yrotation Xrotation
				JOINT RightFoot
				{
					OFFSET -0.438985 -32.635651 -3.012681
					CHANNELS 3 Zrotation Yrotation Xrotation
					JOINT RightToeBase
					{
						OFFSET -0.970169 -13.225354 11.864223
						CHANNELS 3 Zrotation Yrotation Xrotation
						End Site
						{
							OFFSET 0.000000 0.000000 0.000000
						}
					}
				}
			}
		}
	}
	JOINT Spine_virtual
	{
		OFFSET 0.000000 0.000000 0.000000
		CHANNELS 3 Zrotation Yrotation Xrotation
		JOINT Spine
		{
			OFFSET 0.000000 7.722015 1.166203
			CHANNELS 3 Zrotation Yrotation Xrotation
			JOINT Spine1
			{
				OFFSET 0.000000 12.024086 0.248766
				CHANNELS 3 Zrotation Yrotation Xrotation
				JOINT Spine2
				{
					OFFSET -0.000000 11.503036 -0.491240
					CHANNELS 3 Zrotation Yrotation Xrotation
					JOINT Neck_virtual
					{
						OFFSET 0.000000 0.000000 0.000000
						CHANNELS 3 Zrotation Yrotation Xrotation
						JOINT Neck
						{
							OFFSET 0.000000 18.430687 -3.123054
							CHANNELS 3 Zrotation Yrotation Xrotation
							JOINT Head
							{
								OFFSET -0.000000 9.051071 1.034021
								CHANNELS 3 Zrotation Yrotation Xrotation
								End Site
								{
									OFFSET 0.000000 0.000000 0.000000
								}
							}
						}
					}
					JOINT LeftShoulder_virtual
					{
						OFFSET 0.000000 0.000000 0.000000
						CHANNELS 3 Zrotation Yrotation Xrotation
						JOINT LeftShoulder
						{
							OFFSET 6.197824 13.665230 -4.064723
							CHANNELS 3 Zrotation Yrotation Xrotation
							JOINT LeftArm
							{
								OFFSET 7.778132 -0.187073 -1.709282
								CHANNELS 3 Zrotation Yrotation Xrotation
								JOINT LeftForeArm
								{
									OFFSET 21.954697 0.000000 -2.041093
									CHANNELS 3 Zrotation Yrotation Xrotation
									JOINT LeftHand
									{
										OFFSET 22.992908 0.000000 -0.870901
										CHANNELS 3 Zrotation Yrotation Xrotation
										End Site
										{
											OFFSET 0.000000 0.000000 0.000000
										}
									}
								}
							}
						}
					}
					JOINT RightShoulder_virtual
					{
						OFFSET 0.000000 0.000000 0.000000
						CHANNELS 3 Zrotation Yrotation Xrotation
						JOINT RightShoulder
						{
							OFFSET -6.197824 13.665230 -4.064723
							CHANNELS 3 Zrotation Yrotation Xrotation
							JOINT RightArm
							{
								OFFSET -7.778132 -0.187073 -1.709282
								CHANNELS 3 Zrotation Yrotation Xrotation
								JOINT RightForeArm
								{
									OFFSET -21.954697 0.000000 -2.041093
									CHANNELS 3 Zrotation Yrotation Xrotation
									JOINT RightHand
									{
										OFFSET -22.992908 0.000000 -0.870901
										CHANNELS 3 Zrotation Yrotation Xrotation
										End Site
										{
											OFFSET 0.000000 0.000000 0.000000
										}
									}
								}
							}
						}
					}
				}
			}
		}
	}
}
MOTION
Frames: 5
Frame Time: 0.033333
4.506900 78.773628 0.721534 -179.909915 2.276668 -179.375302 -2.795638 -0.133982 9.742880 0.732029 3.739302 -31.287519 10.531016 6.696210 32.921621 -2.375736 -1.426186 -10.078527 0.000000 0.000000 0.000000 -0.714431 0.744900 11.651058 -1.665081 6.219381 -30.804836 3.184838 8.028106 34.279077 12.196794 7.657343 -9.826979 0.000000 0.000000 0.000000 4.067452 1.448210 -4.515129 -2.880542 -2.635722 0.410593 -0.978297 -2.119431 11.728322 -0.015208 -0.405917 0.012798 -1.186121 -0.193855 12.469060 -0.132342 -1.925931 -7.830523 0.000000 0.000000 0.000000 -0.106269 0.108309 9.628955 -11.016717 -7.439649 0.530874 -62.572101 -4.032481 6.541708 1.439450 -15.534048 1.790808 0.000000 0.000000 0.000000 -3.599371 1.531715 8.886337 23.507911 1.612830 5.686132 51.317182 6.687653 6.279246 -4.920362 18.162112 -3.710811 0.000000 0.000000 0.000000 
4.462403 78.772575 0.735745 -179.995224 1.524000 -179.066632 -2.969437 0.161202 9.911122 0.555453 4.129399 -30.953246 11.118751 7.349778 33.163734 -1.735012 -0.677193 -9.967080 0.000000 0.000000 0.000000 -0.559405 0.633279 11.985724 -1.825949 6.872753 -30.341001 3.474448 8.447129 34.617981 12.543165 7.919540 -9.698122 0.000000 0.000000 0.000000 3.983796 1.289603 -4.724797 -2.940817 -2.652915 0.339555 -0.955734 -2.401540 11.501421 0.068196 -0.655873 0.103861 -1.200290 -0.306105 12.551315 -0.128315 -1.912921 -7.931813 0.000000 0.000000 0.000000 -0.113888 -0.072189 9.753205 -11.052486 -7.458482 0.475271 -62.562368 -4.133765 6.408098 1.523808 -15.677338 1.669481 0.000000 0.000000 0.000000 -3.610441 1.431787 8.922040 23.453022 1.578286 5.696579 51.278270 6.706791 6.240034 -5.078030 18.072617 -3.833593 0.000000 0.000000 0.000000 
4.434448 78.769066 0.707949 179.974706 1.687057 -179.050199 -3.005277 0.096057 9.851242 0.551743 4.082295 -30.855516 11.118974 7.352401 33.111193 -1.754715 -0.691378 -9.951213 0.000000 0.000000 0.000000 -0.561979 0.506919 11.885008 -1.872336 6.838378 -30.295898 3.469025 8.437978 34.664282 12.553790 7.865686 -9.729399 0.000000 0.000000 0.000000 3.914786 1.088220 -4.863455 -3.012758 -2.793245 0.371191 -0.935869 -2.249368 11.588893 0.057128 -0.436326 0.123919 -1.150930 -0.303668 12.496656 -0.103235 -1.895353 -7.903376 0.000000 0.000000 0.000000 -0.104543 -0.058097 9.761593 -11.063950 -7.593131 0.491678 -62.431679 -4.236713 6.341111 1.433534 -15.927694 1.748856 0.000000 0.000000 0.000000 -3.599403 1.397927 8.857044 23.454583 1.635464 5.727515 51.238037 6.768665 6.290658 -5.090230 18.131034 -3.865192 0.000000 0.000000 0.000000 
4.410864 78.764816 0.652387 179.968969 1.910097 -179.031580 -3.018666 0.019651 9.818593 0.586389 4.061826 -30.761823 11.091782 7.388780 33.084309 -1.769971 -0.704753 -9.927958 0.000000 0.000000 0.000000 -0.543018 0.370247 11.806859 -1.886531 6.787782 -30.282402 3.448304 8.433603 34.742379 12.554380 7.796603 -9.777404 0.000000 0.000000 0.000000 3.865682 1.174601 -4.958207 -3.085594 -2.511762 0.380748 -0.926667 -2.233825 11.745200 0.088506 -0.478363 0.066169 -1.065415 -0.225468 12.396649 -0.055988 -1.853785 -7.747688 0.000000 0.000000 0.000000 -0.093766 -0.139610 9.769265 -10.988399 -7.722956 0.502068 -62.234915 -4.230963 6.230207 1.362026 -16.197648 1.711795 0.000000 0.000000 0.000000 -3.608795 1.293264 8.727798 23.546367 1.546810 5.791454 51.278779 6.784909 6.360828 -5.126770 18.307342 -4.059245 0.000000 0.000000 0.000000 
4.404202 78.759964 0.583465 179.953546 2.057078 -179.018138 -3.029389 -0.046867 9.829802 0.622048 4.034744 -30.714480 11.049480 7.434491 33.061975 -1.770663 -0.700377 -9.920975 0.000000 0.000000 0.000000 -0.521596 0.259322 11.774032 -1.905074 6.716099 -30.307240 3.448863 8.428082 34.865800 12.550265 7.730207 -9.825429 0.000000 0.000000 0.000000 3.808628 0.961026 -4.927225 -3.165086 -2.610282 0.303430 -0.902484 -2.341769 11.734169 0.056572 -0.502017 0.011456 -1.138972 -0.332129 12.431186 -0.146877 -1.688715 -7.678780 0.000000 0.000000 0.000000 -0.098914 0.009688 9.611446 -11.066042 -7.594958 0.613831 -62.086775 -3.974921 6.213030 1.327538 -16.464798 1.752735 0.000000 0.000000 0.000000 -3.574697 1.437120 8.885134 23.564702 1.751513 5.832851 51.325088 6.926993 6.496559 -5.162134 18.511771 -3.957301 0.000000 0.000000 0.000000 
